<svg width="1104" height="377" viewBox="0 0 1104 377" fill="none" xmlns="http://www.w3.org/2000/svg">
<path fill-rule="evenodd" clip-rule="evenodd" d="M143.898 146.2C140.232 142.467 138.398 138.067 138.398 133V127.5C138.198 122.433 139.932 118.067 143.598 114.4C147.265 110.733 151.732 108.8 156.998 108.6L177.298 108.4V151.3L156.998 151.6C151.865 151.733 147.498 149.933 143.898 146.2ZM147.198 133C147.198 135.867 148.198 138.367 150.198 140.5C152.198 142.633 154.532 143.7 157.198 143.7H168.398L168.198 116.8L157.198 117C154.332 117 151.965 117.967 150.098 119.9C148.165 121.967 147.198 124.5 147.198 127.5V133ZM151.698 98.9V90.8C151.898 90.6 152.065 90.5 152.198 90.5H160.298C160.498 90.5 160.665 90.6 160.798 90.8V99.8H152.198C151.865 99.8 151.698 99.5 151.698 98.9Z" fill="#77777A"/>
<path fill-rule="evenodd" clip-rule="evenodd" d="M164.602 98.9V90.8C164.735 90.6 164.902 90.5 165.102 90.5H173.402L173.702 90.8V99.8H165.102C164.768 99.8 164.602 99.5 164.602 98.9ZM249.802 169.2C249.468 169.2 249.302 168.9 249.302 168.3V160.2C249.502 160 249.668 159.9 249.802 159.9H258.202L258.402 160.2V169.2H249.802Z" fill="#77777A"/>
<path d="M245 169.202H245.5V168.302V160.202C245.367 160.002 245.2 159.902 245 159.902H236.9C236.767 159.902 236.633 160.002 236.5 160.202V168.302C236.5 168.902 236.633 169.202 236.9 169.202H245Z" fill="#77777A"/>
<path fill-rule="evenodd" clip-rule="evenodd" d="M314 118.401C314.133 123.001 314.2 129.934 314.2 139.201C314.2 142.867 313.267 145.801 311.4 148.001C309.467 150.201 306.733 151.301 303.2 151.301H288C284.8 151.301 282.167 150.267 280.1 148.201C277.1 150.267 273.833 151.301 270.3 151.301H200C200 158.301 198.333 163.567 195 167.101C191.667 170.567 186.967 172.301 180.9 172.301C177.767 172.301 175.3 172.067 173.5 171.601L176.6 164.201H178.3C186.9 164.201 191.2 159.834 191.2 151.101V115.301C191.2 114.234 191.767 113.301 192.9 112.501L200 110.101V143.501H243.8L243.6 114.601C243.6 113.334 244.333 112.367 245.8 111.701L253.2 108.601V143.501H270.3C272.033 143.501 273.3 143.301 274.1 142.901C274.9 142.501 275.867 141.567 277 140.101V139.201L276.8 128.201C276.6 123.134 278.3 118.767 281.9 115.101C285.5 111.434 289.833 109.601 294.9 109.601H304.7C307.233 109.601 309.367 110.434 311.1 112.101C312.833 113.767 313.8 115.867 314 118.401ZM306.1 139.201L305.6 119.401C305.333 118.267 304.533 117.701 303.2 117.701H295.4C292.533 117.701 290.067 118.734 288 120.801C285.933 122.867 284.9 125.334 284.9 128.201V139.201C284.9 142.067 285.833 143.501 287.7 143.501H303.2C305.133 143.501 306.1 142.067 306.1 139.201ZM356.8 151.301H323.4V143.701H344.1L332.2 92.9008H341.7L353.7 143.701H355.8C362 143.701 365.1 140.134 365.1 133.001V92.3008C365.1 90.8341 365.667 89.8675 366.8 89.4008L374.4 86.3008V134.201C374.4 139.401 372.733 143.601 369.4 146.801C366.067 149.801 361.867 151.301 356.8 151.301Z" fill="#77777A"/>
<path fill-rule="evenodd" clip-rule="evenodd" d="M328.898 83.4008L332.398 82.2008C330.198 80.4008 329.098 78.3341 329.098 76.0008C329.098 73.9341 329.965 72.2008 331.698 70.8008C333.498 69.4674 335.798 68.8008 338.598 68.8008C339.932 68.8008 340.998 68.8675 341.798 69.0008L341.498 74.3008C340.898 74.1674 340.032 74.1008 338.898 74.1008C336.032 74.1008 334.598 74.8008 334.598 76.2008C334.598 77.8008 335.865 79.1674 338.398 80.3008L344.598 78.1008L345.998 83.4008L330.798 88.1008L328.898 83.4008ZM392.198 151.401H382.898V92.3008C382.898 91.0341 383.598 90.0675 384.998 89.4008L392.198 86.3008V151.401ZM429.298 98.9008V90.8008C429.432 90.6674 429.598 90.6008 429.798 90.6008H437.898C438.032 90.6008 438.198 90.6674 438.398 90.8008V99.9008H429.798C429.465 99.9008 429.298 99.5675 429.298 98.9008ZM442.198 98.9008V90.8008C442.332 90.6674 442.498 90.6008 442.698 90.6008H450.998L451.298 90.8008V99.9008H442.698C442.365 99.9008 442.198 99.5675 442.198 98.9008Z" fill="#77777A"/>
<path fill-rule="evenodd" clip-rule="evenodd" d="M562.001 151.303C558.801 151.303 556.167 150.27 554.101 148.203C551.101 150.27 547.834 151.303 544.301 151.303H456.501L436.201 151.603C431.134 151.736 426.767 149.936 423.101 146.203C419.434 142.47 417.601 138.07 417.601 133.003V127.503C417.467 122.436 419.234 118.07 422.901 114.403C426.501 110.736 430.934 108.803 436.201 108.603L456.501 108.403V143.503H495.801L488.401 120.103L491.301 110.803L501.601 108.403C505.867 107.27 509.834 106.703 513.501 106.703C519.234 106.703 523.367 108.37 525.901 111.703C527.967 114.436 529.001 118.603 529.001 124.203C529.001 129.603 527.801 136.036 525.401 143.503H544.301C546.101 143.503 547.401 143.303 548.201 142.903C548.934 142.503 549.867 141.57 551.001 140.103V139.203L550.801 128.203C550.601 123.136 552.301 118.77 555.901 115.103C559.501 111.436 563.834 109.603 568.901 109.603H578.701C581.234 109.603 583.367 110.436 585.101 112.103C586.901 113.77 587.867 115.87 588.001 118.403C588.134 123.07 588.201 130.003 588.201 139.203C588.201 142.87 587.267 145.803 585.401 148.003C583.467 150.203 580.767 151.303 577.301 151.303H562.001ZM520.401 124.203C520.401 120.803 519.767 118.47 518.501 117.203C516.901 115.67 514.601 114.87 511.601 114.803C510.134 114.803 508.301 115.07 506.101 115.603C504.967 115.603 503.634 115.803 502.101 116.203C500.634 116.603 499.334 117.036 498.201 117.503L497.001 120.603L504.601 143.503H510.801C513.067 143.17 514.701 142.47 515.701 141.403C516.767 140.403 517.767 138.236 518.701 134.903C519.834 131.103 520.401 127.536 520.401 124.203ZM447.601 143.503L447.401 116.803L436.401 117.003C433.534 117.003 431.167 117.97 429.301 119.903C427.367 121.97 426.401 124.503 426.401 127.503V133.003C426.401 135.87 427.401 138.37 429.401 140.503C431.401 142.636 433.734 143.703 436.401 143.703H445.001V143.503H447.601ZM561.701 143.503H577.201C579.134 143.503 580.101 142.07 580.101 139.203L579.601 119.403C579.267 118.27 578.467 117.703 577.201 117.703H569.301C566.434 117.703 563.967 118.736 561.901 120.803C559.834 122.87 558.801 125.336 558.801 128.203V139.203C558.801 142.07 559.767 143.503 561.701 143.503ZM661.801 157.303C661.934 157.303 662.001 157.37 662.001 157.503V165.903C662.001 166.236 661.834 166.403 661.501 166.403H653.401C652.867 166.403 652.601 166.236 652.601 165.903V157.503C652.601 157.37 652.867 157.303 653.401 157.303H661.801Z" fill="#77777A"/>
<path fill-rule="evenodd" clip-rule="evenodd" d="M600.805 151.303V92.2031C600.805 90.9365 601.505 89.9698 602.905 89.3031L610.105 86.2031V143.503H661.805L661.505 126.803C661.505 123.603 660.638 121.036 658.905 119.103C657.171 117.236 654.871 116.303 652.005 116.303C649.138 116.303 645.005 116.936 639.605 118.203L638.205 110.803C640.271 110.136 642.671 109.536 645.405 109.003C648.205 108.47 650.338 108.203 651.805 108.203C657.005 108.203 661.271 109.936 664.605 113.403C667.938 116.936 669.705 121.403 669.905 126.803V143.503H673.005L673.905 151.303H600.805ZM29.1047 208.103C29.1714 208.103 29.2047 208.17 29.2047 208.303V216.803C29.2047 217.136 29.038 217.303 28.7047 217.303H20.5047C20.038 217.303 19.8047 217.136 19.8047 216.803V208.303C19.8047 208.17 20.038 208.103 20.5047 208.103H29.1047Z" fill="#77777A"/>
<path d="M159.802 244.002H156.602V227.002C156.468 221.535 154.702 217.002 151.302 213.402C147.902 209.868 143.535 208.102 138.202 208.102C136.735 208.102 134.602 208.368 131.802 208.902C128.935 209.502 126.468 210.135 124.402 210.802L125.902 218.302C131.368 216.968 135.568 216.302 138.502 216.302C141.368 216.302 143.702 217.268 145.502 219.202C147.235 221.135 148.102 223.735 148.102 227.002L148.402 244.002H123.702H123.202H116.902C115.102 244.002 113.802 243.768 113.002 243.302C112.202 242.902 111.302 242.068 110.302 240.802V239.602C110.302 230.202 110.235 223.168 110.102 218.502C109.902 215.902 108.935 213.768 107.202 212.102C105.402 210.435 103.202 209.602 100.602 209.602H90.7016C85.5682 209.602 81.1682 211.435 77.5016 215.102C73.9016 218.835 72.1682 223.268 72.3015 228.402L72.5016 239.602V240.602C71.3682 242.002 70.4016 242.902 69.6016 243.302C68.8016 243.768 67.5349 244.002 65.8016 244.002H63.1016H59.0016H52.4016V234.302V223.802L45.1016 227.002C43.5016 227.468 42.7016 228.435 42.7016 229.902L43.0016 239.402V249.502C43.0016 254.235 42.8016 257.768 42.4016 260.102C42.0016 262.435 41.0682 264.335 39.6016 265.802C38.1349 267.202 36.1016 268.268 33.5016 269.002C30.9016 269.735 28.1682 270.102 25.3016 270.102C22.3682 270.102 19.6682 269.702 17.2016 268.902C14.6682 268.102 12.9349 266.968 12.0016 265.502C9.86822 262.902 8.80156 258.802 8.80156 253.202C8.80156 246.402 10.1682 239.268 12.9016 231.802L4.20155 231.602C1.46822 238.868 0.101562 245.968 0.101562 252.902C0.101562 260.835 1.86822 266.902 5.40155 271.102C7.33488 273.368 10.1349 275.102 13.8016 276.302C17.4016 277.502 21.4016 278.102 25.8016 278.102C30.0016 278.102 33.9349 277.535 37.6016 276.402C41.3349 275.268 44.1682 273.668 46.1016 271.602C48.2349 269.668 49.7349 267.202 50.6016 264.202C51.4682 261.202 52.0682 257.135 52.4016 252.002H59.0016H63.1016H65.8016C69.3349 252.002 72.6349 250.935 75.7016 248.802C77.7682 250.935 80.4349 252.002 83.7016 252.002H99.2016C102.402 252.002 105.068 250.935 107.202 248.802C109.935 250.935 113.168 252.002 116.902 252.002H122.702H123.702H160.702L159.802 244.002ZM99.3015 244.002H83.5016C81.5682 244.002 80.6016 242.535 80.6016 239.602V228.402C80.6016 225.535 81.6682 223.035 83.8015 220.902C85.8682 218.835 88.3682 217.802 91.3015 217.802H99.3015C100.568 217.802 101.368 218.368 101.702 219.502L102.202 239.602C102.202 242.535 101.235 244.002 99.3015 244.002Z" fill="#77777A"/>
<path fill-rule="evenodd" clip-rule="evenodd" d="M198.905 189.001L206.205 185.801V252.001H181.705C181.705 259.067 180.005 264.367 176.605 267.901C173.205 271.501 168.438 273.301 162.305 273.301C159.105 273.301 156.605 273.034 154.805 272.501L157.905 265.001H159.605C168.338 265.001 172.705 260.567 172.705 251.701V215.401C172.705 214.267 173.271 213.301 174.405 212.501L181.705 210.001V244.001H196.705V191.901C196.705 190.567 197.438 189.601 198.905 189.001ZM217.205 189.001L224.405 185.801V252.001H215.005V191.901C215.005 190.567 215.738 189.601 217.205 189.001ZM300.005 260.701C300.071 260.701 300.105 260.767 300.105 260.901V269.401C300.105 269.734 299.971 269.901 299.705 269.901H291.405C290.938 269.901 290.705 269.734 290.705 269.401V260.901C290.705 260.767 290.938 260.701 291.405 260.701H300.005Z" fill="#77777A"/>
<path fill-rule="evenodd" clip-rule="evenodd" d="M337.605 243.702C339.938 243.902 344.805 244.002 352.205 244.002V252.002H233.805V243.702H265.205L264.805 228.702C264.605 224.836 263.505 221.802 261.505 219.602C259.505 217.402 256.805 216.302 253.405 216.302C249.338 216.302 244.905 217.769 240.105 220.702L237.905 213.202C243.505 209.669 249.071 207.902 254.605 207.902C260.271 207.902 264.905 209.869 268.505 213.802C272.171 217.736 274.071 223.036 274.205 229.702V244.002H291.705L291.405 214.602C291.405 213.336 292.138 212.369 293.605 211.702L301.105 208.602V244.002H321.205C318.938 235.736 317.805 229.002 317.805 223.802C317.805 218.536 319.071 214.602 321.605 212.002C324.138 209.402 328.038 208.102 333.305 208.102C337.505 208.102 342.538 208.836 348.405 210.302L346.905 218.802C341.571 217.336 337.371 216.602 334.305 216.602C328.971 216.602 326.305 218.936 326.305 223.602C326.305 226.336 327.205 230.369 329.005 235.702C329.938 238.769 331.038 240.836 332.305 241.902C333.505 242.969 335.271 243.569 337.605 243.702ZM417.305 200.802H408.805C408.671 200.802 408.605 200.569 408.605 200.102V191.502C408.605 191.436 408.671 191.402 408.805 191.402H417.305C417.638 191.402 417.805 191.569 417.805 191.902V200.102C417.805 200.569 417.638 200.802 417.305 200.802Z" fill="#77777A"/>
<path fill-rule="evenodd" clip-rule="evenodd" d="M395.703 200.802C395.37 200.802 395.203 200.569 395.203 200.102V191.902C395.203 191.569 395.37 191.402 395.703 191.402H404.203C404.336 191.402 404.403 191.436 404.403 191.502V200.102C404.403 200.569 404.336 200.802 404.203 200.802H395.703ZM461.103 201.302C460.636 201.302 460.403 201.136 460.403 200.802V192.302C460.403 192.169 460.636 192.102 461.103 192.102H469.703C469.77 192.102 469.803 192.169 469.803 192.302V200.802C469.803 201.136 469.67 201.302 469.403 201.302H461.103ZM496.303 260.202C496.37 260.202 496.403 260.269 496.403 260.402V268.902C496.403 269.236 496.27 269.402 496.003 269.402H487.703C487.236 269.402 487.003 269.236 487.003 268.902V260.402C487.003 260.269 487.236 260.202 487.703 260.202H496.303Z" fill="#77777A"/>
<path fill-rule="evenodd" clip-rule="evenodd" d="M494.1 211.701L501.6 208.601V252.001H392.8C379.267 252.001 372.5 245.767 372.5 233.301C372.5 229.434 373.067 225.234 374.2 220.701H381.9C381.433 224.234 381.2 227.467 381.2 230.401C381.2 235.267 382.167 238.734 384.1 240.801C386.033 242.934 389.267 244.001 393.8 244.001H431.1L430.9 214.601C430.9 213.334 431.6 212.367 433 211.701L440.5 208.601V244.001H461.6L461.4 214.601C461.4 213.334 462.133 212.367 463.6 211.701L471.1 208.601V244.001H492.2L491.9 214.601C491.9 213.334 492.633 212.367 494.1 211.701ZM563.1 252.001L542.5 252.201C537.367 252.334 532.933 250.501 529.2 246.701C525.467 242.967 523.6 238.501 523.6 233.301V227.701C523.467 222.567 525.267 218.134 529 214.401C532.667 210.667 537.167 208.734 542.5 208.601L563.1 208.301V252.001ZM554.2 244.301L553.9 216.901L542.8 217.101C539.867 217.101 537.433 218.101 535.5 220.101C533.567 222.167 532.6 224.734 532.6 227.801V233.401C532.6 236.267 533.6 238.801 535.6 241.001C537.667 243.201 540.067 244.301 542.8 244.301H554.2ZM550.8 190.301H559.3L559.5 190.501V199.701H550.8C550.467 199.701 550.3 199.367 550.3 198.701V190.501C550.433 190.367 550.6 190.301 550.8 190.301Z" fill="#77777A"/>
<path fill-rule="evenodd" clip-rule="evenodd" d="M537.203 190.403V198.603C537.203 199.27 537.37 199.603 537.703 199.603H546.403V190.403C546.27 190.27 546.103 190.203 545.903 190.203H537.703C537.57 190.203 537.403 190.27 537.203 190.403ZM577.303 215.403V251.703C577.303 260.57 572.936 265.003 564.203 265.003H562.503L559.403 272.503C561.136 273.036 563.636 273.303 566.903 273.303C573.036 273.303 577.803 271.503 581.203 267.903C584.603 264.37 586.303 259.07 586.303 252.003V210.003L579.003 212.503C577.87 213.303 577.303 214.27 577.303 215.403ZM662.003 214.603L662.303 244.003H633.403V209.103L615.403 208.803C609.47 208.803 604.636 211.07 600.903 215.603C597.636 219.67 596.003 224.67 596.003 230.603C596.003 236.47 597.636 241.403 600.903 245.403C604.303 249.803 609.136 252.003 615.403 252.003H624.403C624.403 256.003 623.336 259.17 621.203 261.503C619.136 263.836 615.836 265.003 611.303 265.003H609.603L606.503 272.503C608.236 273.036 610.736 273.303 614.003 273.303C620.136 273.303 624.903 271.503 628.303 267.903C631.703 264.37 633.403 259.136 633.403 252.203V252.003H671.703V208.603L664.203 211.703C662.736 212.37 662.003 213.336 662.003 214.603ZM624.403 244.003H615.403C612.203 244.003 609.636 242.703 607.703 240.103C605.77 237.503 604.803 234.336 604.803 230.603C604.803 227.536 605.77 224.47 607.703 221.403C609.436 218.67 612.003 217.303 615.403 217.303H624.403V244.003Z" fill="#77777A"/>
<path d="M660.302 192.102C659.835 192.102 659.602 192.168 659.602 192.302V200.802C659.602 201.135 659.835 201.302 660.302 201.302H668.602C668.935 201.302 669.102 201.135 669.102 200.802V192.302C669.102 192.168 669.035 192.102 668.902 192.102H668.602H660.302Z" fill="#77777A"/>
<path d="M916.002 0.601562C812.302 0.601562 728.102 84.7016 728.102 188.502C728.102 292.202 812.302 376.402 916.002 376.402C1019.8 376.402 1103.9 292.202 1103.9 188.502C1103.9 84.7016 1019.8 0.601562 916.002 0.601562ZM1040.8 261.302H1011V215.002C1011 182.902 990.102 155.502 960.702 144.902C960.702 144.902 960.668 144.902 960.602 144.902C960.268 144.768 959.935 144.635 959.602 144.502C959.268 144.368 958.935 144.268 958.602 144.202C955.068 143.002 951.468 142.068 947.802 141.402C959.602 122.802 974.802 107.102 989.202 94.7016C991.402 97.6349 993.502 100.568 995.502 103.502C1002.8 114.302 1009.4 125.602 1015.1 137.302C1020.4 148.202 1024.9 159.502 1028.5 171.102C1032.3 182.702 1035.1 194.702 1037.1 206.702C1039.2 218.902 1040.4 231.302 1040.7 243.702C1040.8 245.202 1040.8 252.502 1040.8 261.302ZM1040.6 299.702V301.802C1034.4 308.502 1027.7 314.802 1020.6 320.502V295.902H979.902V225.502C979.902 197.902 957.502 175.502 929.902 175.502H900.602C873.002 175.502 850.602 197.902 850.602 225.502V295.902H810.302V319.502C803.502 314.102 797.202 308.002 791.302 301.602C791.402 297.502 791.502 285.702 791.702 272.302H831.902L831.802 261.302L831.502 214.902C831.502 179.702 861.302 151.002 898.002 151.002H933.602C970.202 151.002 1000.1 179.702 1000.1 215.002V272.302H1040.7C1040.7 284.602 1040.6 296.902 1040.6 299.702ZM970.102 316.002C969.602 317.602 969.002 319.502 968.402 321.502C967.735 323.568 967.035 325.768 966.302 328.102C965.635 330.435 964.935 332.868 964.202 335.402H960.302C959.568 333.068 958.868 330.868 958.202 328.802C957.468 326.735 956.768 324.768 956.102 322.902C955.368 320.968 954.602 319.102 953.802 317.302C953.068 315.502 952.268 313.668 951.402 311.802L956.002 310.302C956.468 311.368 956.968 312.668 957.502 314.202C958.102 315.702 958.602 317.202 959.202 318.802C959.735 320.468 960.302 322.135 960.902 323.802C961.435 325.468 961.902 327.002 962.302 328.402C963.035 325.268 963.835 322.202 964.702 319.202C965.502 316.302 966.302 313.302 967.202 310.302L971.602 311.802C971.135 312.935 970.635 314.335 970.102 316.002ZM939.702 217.402C940.302 216.402 940.902 215.402 941.802 214.602C942.702 213.802 943.202 213.502 944.202 213.702C945.702 214.102 946.102 215.402 946.602 217.002C946.902 218.002 946.702 219.102 946.302 220.102C945.902 220.902 945.402 221.802 944.802 222.502C944.102 223.102 943.302 223.602 942.402 223.602C941.802 223.602 941.302 223.402 940.702 223.102C940.002 222.802 939.302 222.302 938.902 221.502C938.102 220.202 938.902 218.702 939.702 217.402ZM946.502 250.802C946.102 251.502 946.002 253.302 945.202 255.802C944.702 257.602 943.702 260.502 942.802 262.402C941.402 265.302 937.802 269.602 932.802 271.702C928.402 273.502 923.002 273.602 919.702 273.602C918.402 273.602 914.702 273.702 914.502 271.702C914.402 269.502 915.302 268.302 917.102 267.802C918.702 267.302 921.002 267.202 922.402 267.002C924.202 266.902 925.502 266.802 927.302 266.502C929.302 266.202 930.702 266.102 932.602 265.202C937.802 262.802 940.102 257.302 939.302 254.102C939.202 253.902 938.902 253.002 938.602 252.802C936.102 251.902 933.202 249.102 932.902 244.902C932.702 242.502 936.002 236.902 943.302 240.602C945.402 241.702 946.002 243.302 946.102 243.302C947.002 243.802 951.502 242.502 951.402 241.402C951.402 239.902 951.602 238.702 951.602 237.202C951.702 236.602 951.602 236.002 951.702 235.202C951.702 233.302 951.502 229.102 951.702 228.602C952.402 227.002 955.302 224.102 958.002 225.402C961.502 227.102 959.602 231.602 959.102 234.802C959.002 235.202 958.702 236.402 958.602 236.902C958.402 238.502 958.102 239.002 957.702 241.002C957.502 242.402 956.602 244.402 955.702 245.602C954.202 247.602 947.302 249.702 946.502 250.802ZM947.602 315.402C946.735 315.268 945.868 315.202 945.002 315.202C944.135 315.135 943.268 315.102 942.402 315.102C940.702 315.102 939.102 315.202 937.702 315.302C937.968 316.502 938.235 317.768 938.502 319.102C938.768 320.435 938.968 321.768 939.102 323.102C939.302 324.435 939.435 325.768 939.502 327.102C939.635 328.368 939.702 329.602 939.702 330.802C939.702 332.468 939.602 334.002 939.402 335.402H935.802C935.702 331.502 935.402 327.602 934.802 323.602C934.135 319.602 933.268 315.868 932.202 312.402L935.102 310.802C936.235 310.602 937.368 310.468 938.502 310.402C939.635 310.335 940.802 310.302 942.002 310.302C943.002 310.302 944.035 310.335 945.102 310.402C946.168 310.468 947.202 310.568 948.202 310.702L947.602 315.402ZM924.902 335.302C923.968 335.435 923.035 335.535 922.102 335.602C921.168 335.735 920.268 335.768 919.402 335.702C916.468 335.702 914.235 335.202 912.702 334.202C911.235 333.135 910.502 331.602 910.502 329.602C910.502 328.402 910.835 327.235 911.502 326.102C912.168 324.968 913.102 324.068 914.302 323.402C912.968 323.068 911.935 322.502 911.202 321.702C910.468 320.902 910.102 319.935 910.102 318.802C910.102 317.802 910.402 316.802 911.102 315.902C911.768 314.968 912.668 314.102 913.802 313.302C914.935 312.568 916.268 311.935 917.802 311.402C919.335 310.868 921.002 310.502 922.802 310.302L921.802 314.802C920.735 315.002 919.735 315.235 918.802 315.502C917.868 315.768 917.068 316.102 916.402 316.502C915.702 316.902 915.102 317.202 914.702 317.602C914.302 318.102 914.102 318.402 914.102 318.902C914.102 319.502 914.568 320.002 915.502 320.402C916.435 320.735 917.768 320.902 919.502 320.902C920.035 320.902 920.502 320.902 920.902 320.902C921.302 320.902 921.602 320.868 921.802 320.802L921.402 324.702C919.202 324.968 917.502 325.468 916.302 326.202C915.102 326.868 914.502 327.735 914.502 328.802C914.502 329.535 915.002 330.102 916.002 330.502C916.935 330.902 918.335 331.102 920.202 331.102C921.068 331.102 922.035 331.068 923.102 331.002C924.102 330.935 925.002 330.802 925.802 330.602L924.902 335.302ZM895.902 268.502C893.802 270.702 891.602 272.902 889.402 275.102C888.302 276.202 887.102 277.302 885.602 277.802C884.102 278.302 882.202 278.002 881.402 276.702C880.602 275.602 880.802 274.102 881.502 272.902C882.102 271.702 883.202 270.902 884.202 270.002C893.502 262.002 901.902 252.902 909.502 243.302C911.102 241.402 912.602 239.402 914.402 237.702C916.202 236.102 918.402 234.702 920.802 234.302C922.002 234.102 923.602 234.202 924.202 235.402C924.902 236.702 923.702 238.102 922.902 239.102C915.602 247.802 907.802 256.102 899.902 264.302C898.568 265.702 897.235 267.102 895.902 268.502ZM898.602 335.502H895.002C894.902 333.502 894.802 331.502 894.602 329.502C894.402 327.502 894.202 325.502 893.902 323.502C893.568 321.502 893.168 319.535 892.702 317.602C892.235 315.668 891.735 313.835 891.202 312.102L895.802 310.702C896.268 312.035 896.668 313.535 897.002 315.202C897.402 316.868 897.735 318.568 898.002 320.302C898.268 322.102 898.468 323.902 898.602 325.702C898.735 327.502 898.802 329.235 898.802 330.902C898.802 332.568 898.735 334.102 898.602 335.502ZM878.402 244.802C878.602 245.102 879.302 246.602 880.902 247.002C881.902 247.302 882.802 247.102 883.702 246.802C884.402 246.502 885.002 246.102 885.502 245.602C886.202 244.802 887.502 243.602 887.602 242.402C888.002 239.002 888.202 235.002 891.302 232.502C893.302 230.902 895.202 230.102 896.802 231.002C897.502 231.402 898.102 232.202 898.402 233.102C899.502 236.502 895.902 240.402 894.002 242.702C890.902 246.102 887.602 249.802 883.702 252.102C881.202 253.502 877.802 253.002 875.302 252.002C874.102 251.602 872.902 250.902 872.102 249.902C868.402 245.502 871.402 238.102 873.702 233.802C876.702 228.602 885.202 221.402 890.702 218.902C891.802 218.402 893.902 218.102 894.202 218.702C894.502 219.302 893.102 220.602 893.102 220.602C888.002 224.802 879.002 236.002 878.002 241.202C877.902 242.002 877.702 243.402 878.402 244.802ZM882.202 331.602C881.735 332.468 881.168 333.202 880.502 333.802C879.768 334.335 878.968 334.768 878.102 335.102C877.168 335.368 876.235 335.502 875.302 335.502C874.168 335.502 873.068 335.335 872.002 335.002C870.935 334.735 869.902 334.368 868.902 333.902C867.635 334.368 866.335 334.735 865.002 335.002C863.535 335.335 862.202 335.502 861.002 335.502H857.702L857.102 335.102V331.102L857.702 330.702H862.802C863.335 330.702 863.835 330.668 864.302 330.602C863.835 330.002 863.502 329.368 863.302 328.702C863.102 328.002 863.002 327.202 863.002 326.402C863.002 325.468 863.168 324.602 863.502 323.802C863.768 322.935 864.168 322.202 864.702 321.602C865.235 320.935 865.868 320.435 866.602 320.102C867.335 319.702 868.168 319.502 869.102 319.502C869.968 319.502 870.768 319.702 871.502 320.102C872.235 320.435 872.868 320.935 873.402 321.602C873.935 322.202 874.335 322.935 874.602 323.802C874.935 324.602 875.102 325.468 875.102 326.402C875.102 327.302 875.002 328.002 874.702 328.702C874.502 329.435 874.168 330.102 873.702 330.702C873.902 330.702 874.135 330.702 874.402 330.702H875.102C875.902 330.702 876.602 330.635 877.202 330.502C877.735 330.368 878.168 330.202 878.502 330.002C878.802 329.902 879.002 329.702 879.102 329.502C879.235 329.235 879.302 329.035 879.302 328.902C879.302 328.102 879.135 327.168 878.802 326.102C878.468 325.035 877.902 323.968 877.102 322.902C876.302 321.835 875.268 320.802 874.002 319.802C872.802 318.802 871.202 318.002 869.302 317.302L871.102 313.302C873.035 314.102 874.735 315.035 876.202 316.102C877.668 317.235 878.902 318.468 879.902 319.802C880.835 321.135 881.568 322.535 882.102 324.002C882.568 325.468 882.802 326.935 882.802 328.402C882.802 329.668 882.602 330.735 882.202 331.602ZM784.602 216.102C783.468 224.902 782.735 233.768 782.402 242.702C782.402 244.102 782.368 245.502 782.302 246.902C782.302 250.602 782.502 286.202 782.402 286.902V291.002C760.602 262.602 747.602 227.102 747.602 188.602C747.602 139.602 768.502 95.5016 801.902 64.7016C807.702 68.0016 821.402 76.2016 837.002 88.6016C834.535 91.8016 832.168 95.0349 829.902 98.3015C825.168 105.168 820.768 112.202 816.702 119.402C812.635 126.735 808.868 134.235 805.402 141.902C802.002 149.635 798.968 157.535 796.302 165.602C793.568 173.735 791.235 181.968 789.302 190.302C787.302 198.835 785.735 207.435 784.602 216.102ZM915.902 20.1016C914.502 20.9016 909.602 23.7016 907.402 25.1016C899.802 29.7016 892.502 34.6682 885.502 40.0016C878.435 45.4016 871.668 51.1682 865.202 57.3015C858.668 63.4349 852.468 69.9016 846.602 76.7016C845.268 78.2349 843.935 79.8016 842.602 81.4016C841.268 80.3349 839.968 79.3349 838.702 78.4016C826.302 68.8015 815.502 62.1016 809.102 58.4016C838.202 34.5016 875.302 20.2016 915.902 20.1016ZM821.002 261.402H791.802C792.102 243.202 792.502 225.002 793.102 220.602C794.102 211.935 795.535 203.302 797.402 194.702C799.268 186.235 801.568 177.868 804.302 169.602C806.968 161.402 810.068 153.335 813.602 145.402C817.068 137.535 820.968 129.835 825.302 122.302C829.568 114.835 834.202 107.602 839.202 100.602C840.735 98.4682 842.302 96.3682 843.902 94.3015C858.302 106.602 873.702 122.402 885.602 141.202C867.202 144.102 851.102 153.102 839.402 166.102C827.602 179.302 820.502 196.402 820.502 215.102L821.002 261.402ZM916.402 30.1016C932.002 39.1016 946.502 49.9016 959.702 62.2016C968.202 70.1016 976.202 78.6016 983.502 87.6016C968.302 100.702 950.802 118.602 937.802 140.402C936.668 140.402 935.502 140.402 934.302 140.402H896.202C896.068 140.402 895.902 140.402 895.702 140.402C882.602 118.302 864.902 100.302 849.602 87.2016C866.002 67.1016 885.502 49.6016 907.402 35.6016C908.402 34.9016 915.602 29.6016 916.402 30.1016ZM1023.5 59.0016C1017.1 62.7016 1006.7 69.3015 994.802 78.4016C993.402 79.5349 991.935 80.7016 990.402 81.9016C980.702 70.0016 969.902 59.0016 958.202 48.9016C951.335 43.0349 944.202 37.5682 936.802 32.5016C933.068 29.9016 929.268 27.4349 925.402 25.1016C923.202 23.8016 918.402 21.0016 917.002 20.2016C957.502 20.4016 994.602 34.9016 1023.5 59.0016ZM1047.9 219.102C1046.5 207.102 1044.3 195.102 1041.3 183.402C1038.3 171.902 1034.6 160.602 1030.2 149.602C1025.8 138.702 1020.7 128.102 1014.9 118.002C1012.03 112.935 1009 107.968 1005.8 103.102C1002.73 98.4349 999.502 93.8349 996.102 89.3015C996.102 89.3015 996.068 89.2682 996.002 89.2016C1011.1 77.1016 1024.4 68.9015 1030.8 65.3015C1063.8 96.1015 1084.5 139.902 1084.5 188.602C1084.5 227.202 1071.5 262.702 1049.6 291.202C1049.7 277.002 1049.7 257.402 1049.7 256.402C1050 243.902 1049.4 231.502 1047.9 219.102Z" fill="#007580"/>
<path d="M869.098 323.5C867.898 323.5 866.898 324.8 866.898 326.3C866.898 327.7 867.898 328.9 869.098 328.9C870.298 328.9 871.198 327.7 871.198 326.3C871.198 324.8 870.298 323.5 869.098 323.5Z" fill="#007580"/>
</svg>
